<mxfile host="app.diagrams.net" modified="2023-11-17T13:53:09.063Z" agent="Mozilla/5.0 (Windows NT 10.0; Win64; x64; rv:109.0) Gecko/20100101 Firefox/119.0" etag="HAjNsCuXXCR3Nn_1SMg7" version="22.1.3" type="github">
  <diagram name="Page-1" id="mKfv6HxKav2rUr6ATd9R">
    <mxGraphModel dx="1257" dy="726" grid="1" gridSize="10" guides="1" tooltips="1" connect="1" arrows="1" fold="1" page="1" pageScale="1" pageWidth="850" pageHeight="1100" math="0" shadow="0">
      <root>
        <mxCell id="0" />
        <mxCell id="1" parent="0" />
        <mxCell id="qqzUvPqdJES5NR0BReqd-1" value="" style="rounded=0;whiteSpace=wrap;html=1;" vertex="1" parent="1">
          <mxGeometry x="40" y="40" width="800" height="560" as="geometry" />
        </mxCell>
      </root>
    </mxGraphModel>
  </diagram>
</mxfile>
